<svg xmlns="http://www.w3.org/2000/svg" width="601.744" height="123.711" viewBox="0 0 601.744 123.711"><g transform="translate(214.849 9.878)"><path d="M25.256,1.925q-8.855,0-13.475-2.657a8.5,8.5,0,0,1-4.62-7.816,46.387,46.387,0,0,1,.308-4.736q.308-2.887.963-7.277t1.694-10.7q1.039-6.314,2.58-14.861L9.779-51.975a36.585,36.585,0,0,1,6.045-2.888A15.22,15.22,0,0,1,20.867-55.9q4.235,0,4.235,5.082a31.031,31.031,0,0,1-.347,3.273q-.347,2.5-.885,6.083t-1.193,7.777q-.655,4.2-1.348,8.509t-1.271,8.124q-.578,3.812-.885,6.776t-.308,4.351a17.844,17.844,0,0,0,3.7.963,27.228,27.228,0,0,0,3.927.269,18.968,18.968,0,0,0,10.934-3.2,21.726,21.726,0,0,0,7.392-8.855,29.646,29.646,0,0,0,2.695-12.9q0-9.163-3.811-14.053T32.725-48.587a19.337,19.337,0,0,0-5.044.577,17.864,17.864,0,0,0-4.043,1.655q-1.925,1.078-4.389,2.618l-1-4.62q3-2.31,5.66-3.965a24.373,24.373,0,0,1,5.813-2.618,25.747,25.747,0,0,1,7.469-.962,22.463,22.463,0,0,1,11.781,3,20.429,20.429,0,0,1,7.777,8.431,27.855,27.855,0,0,1,2.772,12.821,35.6,35.6,0,0,1-2.5,13.59A31.238,31.238,0,0,1,49.973-7.469,31.738,31.738,0,0,1,39.116-.539,37.811,37.811,0,0,1,25.256,1.925ZM72.534,2Q67.3,2,67.3-4.774a24.641,24.641,0,0,1,1.194-6.853,77.3,77.3,0,0,1,3.619-9.394q2.425-5.39,6.237-12.282t8.971-15.361L84.854-52.9a25.394,25.394,0,0,1,5.352-2.541,17.349,17.349,0,0,1,5.274-.77q3.542,0,4.62,1.694a8.212,8.212,0,0,1,4.774-1.694,5,5,0,0,1,4.312,1.887q1.386,1.887,1.386,6.044,0,3.927-.077,8.431t-.039,9.24q.039,4.735.27,9.278t.77,8.585a38.7,38.7,0,0,0,1.617,7.238,14.766,14.766,0,0,0,2.695,5.044A10.913,10.913,0,0,1,108.8,2,7.636,7.636,0,0,1,104.065.578a9.769,9.769,0,0,1-3.041-4.659,36.514,36.514,0,0,1-1.656-8.663q-.5-5.429-.5-13.436,0-7.315.038-12.7t.193-8.932h-.924q-6.468,9.779-10.742,17.595a103.414,103.414,0,0,0-6.391,13.591,28.72,28.72,0,0,0-2.118,9.317A16.208,16.208,0,0,0,80.157-.462a12.242,12.242,0,0,1-3.5,1.809A12.941,12.941,0,0,1,72.534,2Zm3.773-15.785,1.386-6.622h26.642L103.1-13.783Zm72.842-4.928a23.506,23.506,0,0,1-6.968-.924,20.334,20.334,0,0,1-6.122-3.311l1.232-5.313a11.549,11.549,0,0,0,3.965,1.886,17.04,17.04,0,0,0,4.35.578,18.248,18.248,0,0,0,8.085-1.656,12.9,12.9,0,0,0,5.275-4.543,11.767,11.767,0,0,0,1.887-6.584,11.8,11.8,0,0,0-1-4.812,8.024,8.024,0,0,0-3.272-3.657,11.689,11.689,0,0,0-6.122-1.386,13.227,13.227,0,0,0-5.7,1.347,37.166,37.166,0,0,0-6.083,3.735v-4.62a50.037,50.037,0,0,1,4.774-3.966,20.272,20.272,0,0,1,5.467-2.772,23.231,23.231,0,0,1,7.392-1.039,16.825,16.825,0,0,1,9.086,2.31,15.169,15.169,0,0,1,5.583,5.967,16.808,16.808,0,0,1,1.886,7.815,20.622,20.622,0,0,1-1.424,7.469,20.378,20.378,0,0,1-4.312,6.738,21.013,21.013,0,0,1-7.392,4.889A27.781,27.781,0,0,1,149.149-18.711ZM133.441,2q-3.465,0-5.082-1.771t-1.617-5.7q0-2.079.269-5.005t.924-7.507q.654-4.581,1.733-11.435t2.695-16.709l-2.926-5.852a34.152,34.152,0,0,1,5.967-2.888,15.706,15.706,0,0,1,5.275-1.039q4.158,0,4.158,5.082a30.56,30.56,0,0,1-.462,3.7q-.462,2.849-1.194,6.93t-1.5,8.7q-.77,4.62-1.54,9.124t-1.232,8.278a52.111,52.111,0,0,0-.462,6.006,17.282,17.282,0,0,0,.5,4.466,9.012,9.012,0,0,0,1.5,3.157A11.771,11.771,0,0,1,133.441,2Zm32.725-.077a9.316,9.316,0,0,1-4.62-1.078,11.066,11.066,0,0,1-3.7-3.889,54.974,54.974,0,0,1-3.927-8.047l-4.389-10.4,10.318-4.235q2.387,5.775,4.851,10.742a78.009,78.009,0,0,0,4.851,8.547,24.057,24.057,0,0,0,4.466,5.275,7.279,7.279,0,0,1-2.156,1.54A16.027,16.027,0,0,1,168.938,1.5,10.567,10.567,0,0,1,166.166,1.925Zm34.5,0A43.162,43.162,0,0,1,189.8.732a15.619,15.619,0,0,1-6.891-3.426,7.168,7.168,0,0,1-2.349-5.39,7.07,7.07,0,0,1,.963-3.542,9.2,9.2,0,0,1,2.5-2.849,19.994,19.994,0,0,0,6.737,7.123,17.12,17.12,0,0,0,9.279,2.58,20.826,20.826,0,0,0,9.587-1.964,6.407,6.407,0,0,0,3.812-6.044,4.653,4.653,0,0,0-1.579-3.542,14.973,14.973,0,0,0-4.235-2.618q-2.656-1.155-5.775-2.233t-6.276-2.464a32.724,32.724,0,0,1-5.813-3.273,14.965,14.965,0,0,1-4.273-4.62,12.709,12.709,0,0,1-1.617-6.583,13.424,13.424,0,0,1,2.079-7.354,18.221,18.221,0,0,1,5.814-5.621,29.51,29.51,0,0,1,8.816-3.581A47.378,47.378,0,0,1,211.75-55.9a35.567,35.567,0,0,1,9.124,1.039A15.652,15.652,0,0,1,227-51.937a5.582,5.582,0,0,1,2.233,4.351,6.4,6.4,0,0,1-2.387,5.39,9.272,9.272,0,0,1-5.852,1.848,9.569,9.569,0,0,1-6.275-2.117,13.318,13.318,0,0,1-3.965-6.2q-6.853.77-10.818,3.272t-3.965,5.967a4.421,4.421,0,0,0,1.578,3.465,15.5,15.5,0,0,0,4.235,2.5q2.657,1.117,5.775,2.194t6.275,2.387a30.8,30.8,0,0,1,5.814,3.157,14.437,14.437,0,0,1,4.235,4.5,12.214,12.214,0,0,1,1.579,6.352,13.353,13.353,0,0,1-1.771,6.776A16.112,16.112,0,0,1,218.6-2.772,26.205,26.205,0,0,1,210.749.693,38.512,38.512,0,0,1,200.662,1.925ZM239.47,2q-5.236,0-5.236-6.776a24.641,24.641,0,0,1,1.193-6.853,77.3,77.3,0,0,1,3.619-9.394q2.426-5.39,6.237-12.282t8.971-15.361L251.79-52.9a25.394,25.394,0,0,1,5.351-2.541,17.349,17.349,0,0,1,5.275-.77q3.542,0,4.62,1.694a8.212,8.212,0,0,1,4.774-1.694,5,5,0,0,1,4.312,1.887q1.386,1.887,1.386,6.044,0,3.927-.077,8.431t-.039,9.24q.038,4.735.27,9.278t.77,8.585a38.7,38.7,0,0,0,1.617,7.238,14.766,14.766,0,0,0,2.695,5.044A10.913,10.913,0,0,1,275.737,2,7.636,7.636,0,0,1,271,.578a9.769,9.769,0,0,1-3.042-4.659,36.515,36.515,0,0,1-1.655-8.663q-.5-5.429-.5-13.436,0-7.315.039-12.7t.193-8.932h-.924q-6.468,9.779-10.742,17.595a103.414,103.414,0,0,0-6.391,13.591,28.72,28.72,0,0,0-2.118,9.317,16.208,16.208,0,0,0,1.232,6.853,12.242,12.242,0,0,1-3.5,1.809A12.941,12.941,0,0,1,239.47,2Zm3.773-15.785,1.386-6.622h26.642l-1.232,6.622ZM336.952,2a18.081,18.081,0,0,1-5.082-.655,10.375,10.375,0,0,1-4.12-2.387,18.26,18.26,0,0,1-3.619-5.082,70.122,70.122,0,0,1-3.581-8.547q-1.848-5.2-4-12.782t-4.851-17.9h-4.081L307.538-55.9a12.9,12.9,0,0,1,5.044.924,10.053,10.053,0,0,1,4.081,3.5,34.214,34.214,0,0,1,3.811,7.469q1.925,4.89,4.273,12.7T330.1-11.935l6.7.077ZM300.377,2Q296.912,2,295.3.231t-1.617-5.7q0-2.079.27-5.005t.924-7.507q.655-4.581,1.733-11.435t2.7-16.709l-2.926-5.852a34.153,34.153,0,0,1,5.967-2.888,15.706,15.706,0,0,1,5.275-1.039q4.158,0,4.158,5.082a27.074,27.074,0,0,1-.346,3.118q-.347,2.349-.886,5.7t-1.232,7.354q-.693,4-1.386,8.085t-1.271,7.739q-.577,3.658-.924,6.468a37.91,37.91,0,0,0-.346,4.274,17.282,17.282,0,0,0,.5,4.466,9.012,9.012,0,0,0,1.5,3.157A11.771,11.771,0,0,1,300.377,2Zm36.575,0q-3.542,0-5.12-1.771t-1.579-5.775q0-2.079.231-5.005t.885-7.469q.655-4.543,1.771-11.4t2.81-16.786L333.1-51.975a28.3,28.3,0,0,1,5.852-2.926,15.906,15.906,0,0,1,5.236-1q4.158,0,4.158,5.005A27.074,27.074,0,0,1,348-47.779q-.346,2.348-.924,5.737t-1.232,7.392q-.655,4-1.348,8.046t-1.27,7.739q-.578,3.7-.924,6.506a37.91,37.91,0,0,0-.346,4.274,16.834,16.834,0,0,0,.5,4.427,10.887,10.887,0,0,0,1.5,3.273,14.069,14.069,0,0,1-3.465,1.81A10.9,10.9,0,0,1,336.952,2Z" transform="translate(5.894 104.446)" fill="#3b5770"/><path d="M6.982,0H383.018a7,7,0,0,1,0,14H6.982a7,7,0,0,1,0-14Z" transform="translate(-3.105 27.946)" fill="#ff9238"/><path d="M13.158-85.4h88.881q4.386,0,6.579,1.935a6.185,6.185,0,0,1,2.193,4.838,6.692,6.692,0,0,1-2.257,5.031q-2.257,2.129-6.515,2.129H87.333A180.124,180.124,0,0,1,83.4-49.214q-3.161,13.868-4.515,21.027T76.626-16.835q-.9,4.193-2.064,8.579Q72.111.387,68.112.387A7.067,7.067,0,0,1,62.952-2Q60.63-4.386,60.63-9.03q0-2.064,1.87-14.19t2.9-18.834q-5.16,1.161-20.253,3.483Q39.861-9.8,26.187-9.8q-7.353,0-13.932-7.869T5.676-32.7q0-7.159,6.579-11.094T31.476-50.31q.774-12.126.774-20.64v-.516H13.158q-4.386,0-6.644-2A6.648,6.648,0,0,1,4.257-78.69Q4.257-85.4,13.158-85.4Zm12.771,61.4q2.451,0,4.257-12-9.933,1.935-9.933,4.257A8.521,8.521,0,0,0,22.317-26.7Q24.381-23.994,25.929-23.994Zm21.8-47.472v1.419q0,7.74-.774,17.028,3.741-.387,20.511-3.1l2.322-15.351ZM94.041-85.4H139.32q4.386,0,6.579,1.935a6.185,6.185,0,0,1,2.193,4.838,6.692,6.692,0,0,1-2.257,5.031q-2.258,2.129-6.514,2.129H124.743a179.951,179.951,0,0,1-3.87,22.059q-3.1,13.674-4.709,21.156t-2.515,11.417q-.9,3.935-2.064,8.579Q109.263.387,106.554.387q-2.322,0-6-3.935t-3.676-7.8a32.063,32.063,0,0,1,1.032-5.418q3.87-17.415,4.515-22.7,1.419-10.191,4.773-31.992H94.041q-4.386,0-6.644-2A6.648,6.648,0,0,1,85.14-78.69Q85.14-85.4,94.041-85.4Zm46.182,0h84.5q4.386,0,6.579,1.935a6.185,6.185,0,0,1,2.193,4.838,6.692,6.692,0,0,1-2.258,5.031q-2.258,2.129-6.514,2.129H210.012a179.947,179.947,0,0,1-3.87,22.059q-3.1,13.674-4.708,21.156t-2.516,11.417q-.9,3.935-2.064,8.579Q194.532.387,191.823.387q-2.322,0-6-3.935t-3.676-7.8a32.062,32.062,0,0,1,1.032-5.418q3.87-17.415,4.515-22.7,1.419-10.191,4.773-31.992H177.633a74.589,74.589,0,0,1,.387,8.514q0,5.289-.645,12.062a102.572,102.572,0,0,1-2.322,13.868A61.051,61.051,0,0,1,170.8-24.575a25.266,25.266,0,0,1-6.772,8.772,14.434,14.434,0,0,1-9.353,3.419q-7.869,0-14.641-8.514t-6.773-17.028q0-14.706,22.059-14.706a60.785,60.785,0,0,1,6.708.387q.516-6.063.516-11.674t.129-7.547H140.223q-4.386,0-6.643-2a6.648,6.648,0,0,1-2.258-5.224Q131.322-85.4,140.223-85.4ZM153.9-26.574q4.128,0,6.579-13.158a34.96,34.96,0,0,0-4.9-.387q-7.74,0-7.74,3.87,0,2.193,2.064,5.934T153.9-26.574Zm67.789-78.239a31.092,31.092,0,0,0-5.418-2.9,21.5,21.5,0,0,0-8.45-1.419,11.747,11.747,0,0,0-8.385,3.031,9.446,9.446,0,0,0-3.225,7.1,9.721,9.721,0,0,0,2.258,6.644,13.912,13.912,0,0,0,4.966,3.741q7.224,3.1,7.224,5.805,0,1.419-1.87,2.451a9.077,9.077,0,0,1-4.451,1.032,23.291,23.291,0,0,1-16.189-6,19.756,19.756,0,0,1-6.643-15.351,21.312,21.312,0,0,1,6.966-16,23.749,23.749,0,0,1,17.028-6.643q10.062,0,16.061,5.289t6,12a2.755,2.755,0,0,1-.709,1.935,2.417,2.417,0,0,1-1.871.774A6.659,6.659,0,0,1,221.686-104.813Z" transform="translate(-219.106 113.446)" fill="#ff9238"/></g></svg>